<?xml version="1.0" encoding="UTF-8"?>
<svg xmlns="http://www.w3.org/2000/svg" xmlns:xlink="http://www.w3.org/1999/xlink" width="px" height="px" viewBox="0 0 52 64" version="1.1">
<g id="surface1">
<path style=" stroke:none;fill-rule:nonzero;fill:rgb(0%,0%,0%);fill-opacity:1;" d="M 8.195312 47.070312 L 8.195312 45.871094 L 7.085938 45.871094 L 7.085938 47.070312 L 6.53125 47.070312 L 6.53125 44.191406 L 7.085938 44.191406 L 7.085938 45.394531 L 8.195312 45.394531 L 8.195312 44.191406 L 8.761719 44.191406 L 8.761719 47.066406 Z M 10.835938 47.070312 L 10.386719 47.070312 L 10.347656 46.929688 C 10.152344 47.046875 9.925781 47.113281 9.695312 47.113281 C 9.296875 47.113281 9.125 46.863281 9.125 46.496094 C 9.125 46.074219 9.320312 45.910156 9.765625 45.910156 L 10.300781 45.910156 L 10.300781 45.691406 C 10.300781 45.460938 10.230469 45.378906 9.882812 45.378906 C 9.679688 45.382812 9.476562 45.40625 9.273438 45.445312 L 9.207031 45.046875 C 9.453125 44.984375 9.707031 44.953125 9.960938 44.953125 C 10.648438 44.953125 10.851562 45.183594 10.851562 45.695312 Z M 10.300781 46.285156 L 9.886719 46.285156 C 9.703125 46.285156 9.65625 46.332031 9.65625 46.488281 C 9.65625 46.648438 9.703125 46.699219 9.875 46.699219 C 10.019531 46.695312 10.164062 46.660156 10.289062 46.589844 Z M 11.996094 47.113281 C 11.738281 47.109375 11.484375 47.066406 11.242188 46.992188 L 11.316406 46.597656 C 11.53125 46.652344 11.75 46.683594 11.96875 46.683594 C 12.222656 46.683594 12.25 46.632812 12.25 46.476562 C 12.25 46.320312 12.222656 46.285156 11.863281 46.203125 C 11.332031 46.078125 11.269531 45.957031 11.269531 45.550781 C 11.269531 45.148438 11.460938 44.953125 12.085938 44.953125 C 12.304688 44.949219 12.527344 44.976562 12.742188 45.023438 L 12.6875 45.4375 C 12.488281 45.402344 12.289062 45.382812 12.085938 45.378906 C 11.835938 45.378906 11.808594 45.425781 11.808594 45.554688 C 11.808594 45.6875 11.820312 45.734375 12.117188 45.804688 C 12.730469 45.957031 12.785156 46.035156 12.785156 46.460938 C 12.785156 46.890625 12.644531 47.113281 11.984375 47.113281 Z M 14.507812 47.070312 L 14.507812 45.621094 C 14.507812 45.507812 14.460938 45.453125 14.332031 45.453125 C 14.132812 45.476562 13.9375 45.535156 13.761719 45.628906 L 13.761719 47.070312 L 13.199219 47.070312 L 13.199219 44.15625 L 13.75 44.234375 L 13.75 45.148438 C 14 45.027344 14.273438 44.957031 14.550781 44.945312 C 14.914062 44.945312 15.050781 45.195312 15.050781 45.558594 L 15.050781 47.066406 Z M 15.511719 44.699219 L 15.511719 44.203125 L 16.050781 44.203125 L 16.050781 44.699219 Z M 15.511719 47.070312 L 15.511719 44.992188 L 16.050781 44.992188 L 16.050781 47.070312 Z M 16.5 45.011719 C 16.5 44.488281 16.816406 44.1875 17.5625 44.1875 C 17.835938 44.1875 18.109375 44.21875 18.375 44.28125 L 18.3125 44.746094 C 18.070312 44.703125 17.828125 44.679688 17.582031 44.671875 C 17.191406 44.671875 17.066406 44.800781 17.066406 45.105469 L 17.066406 46.195312 C 17.066406 46.496094 17.191406 46.625 17.582031 46.625 C 17.828125 46.621094 18.070312 46.597656 18.3125 46.554688 L 18.375 47.019531 C 18.109375 47.082031 17.835938 47.113281 17.5625 47.113281 C 16.8125 47.113281 16.5 46.808594 16.5 46.289062 Z M 19.585938 47.113281 C 18.832031 47.113281 18.632812 46.71875 18.632812 46.292969 L 18.632812 45.769531 C 18.632812 45.34375 18.839844 44.953125 19.585938 44.953125 C 20.335938 44.953125 20.542969 45.34375 20.542969 45.769531 L 20.542969 46.292969 C 20.535156 46.71875 20.332031 47.113281 19.578125 47.113281 Z M 19.585938 45.394531 C 19.296875 45.394531 19.183594 45.515625 19.183594 45.753906 L 19.183594 46.3125 C 19.183594 46.542969 19.296875 46.667969 19.585938 46.667969 C 19.878906 46.667969 19.992188 46.542969 19.992188 46.3125 L 19.992188 45.753906 C 19.984375 45.515625 19.871094 45.394531 19.578125 45.394531 Z M 22.082031 45.425781 C 21.882812 45.515625 21.6875 45.617188 21.503906 45.730469 L 21.503906 47.070312 L 20.949219 47.070312 L 20.949219 44.992188 L 21.410156 44.992188 L 21.449219 45.222656 C 21.628906 45.109375 21.820312 45.019531 22.023438 44.953125 Z M 24.269531 46.386719 C 24.269531 46.847656 24.054688 47.132812 23.546875 47.132812 C 23.347656 47.128906 23.152344 47.109375 22.960938 47.070312 L 22.960938 47.921875 L 22.414062 48 L 22.414062 45.023438 L 22.859375 45.023438 L 22.914062 45.199219 C 23.117188 45.054688 23.359375 44.980469 23.605469 44.980469 C 24.046875 44.980469 24.28125 45.230469 24.28125 45.699219 Z M 22.960938 46.625 C 23.121094 46.65625 23.28125 46.675781 23.445312 46.679688 C 23.644531 46.679688 23.71875 46.589844 23.71875 46.398438 L 23.71875 45.667969 C 23.71875 45.496094 23.652344 45.40625 23.449219 45.40625 C 23.269531 45.410156 23.097656 45.476562 22.960938 45.589844 Z M 22.960938 46.625 "/>
<path style=" stroke:none;fill-rule:nonzero;fill:rgb(0%,0%,0%);fill-opacity:1;" d="M 12.378906 49.160156 L 14.082031 49.160156 L 11.496094 57.6875 L 9.085938 57.6875 L 6.503906 49.160156 L 8.203125 49.160156 L 10.300781 56.269531 Z M 12.378906 49.160156 "/>
<path style=" stroke:none;fill-rule:nonzero;fill:rgb(0%,0%,0%);fill-opacity:1;" d="M 18.800781 57.6875 L 17.503906 57.6875 L 17.386719 57.269531 C 16.828125 57.625 16.175781 57.816406 15.507812 57.816406 C 14.351562 57.816406 13.859375 57.035156 13.859375 55.960938 C 13.859375 54.691406 14.417969 54.207031 15.699219 54.207031 L 17.207031 54.207031 L 17.207031 53.550781 C 17.207031 52.859375 17.015625 52.617188 16 52.617188 C 15.410156 52.621094 14.820312 52.6875 14.242188 52.808594 L 14.050781 51.621094 C 14.753906 51.425781 15.484375 51.324219 16.214844 51.324219 C 18.199219 51.324219 18.78125 52.015625 18.78125 53.578125 Z M 17.21875 55.332031 L 16.050781 55.332031 C 15.53125 55.332031 15.390625 55.472656 15.390625 55.949219 C 15.390625 56.382812 15.53125 56.574219 16.023438 56.574219 C 16.441406 56.570312 16.855469 56.460938 17.21875 56.253906 Z M 17.21875 55.332031 "/>
<path style=" stroke:none;fill-rule:nonzero;fill:rgb(0%,0%,0%);fill-opacity:1;" d="M 21.824219 56.011719 C 21.722656 56.058594 21.640625 56.128906 21.574219 56.214844 C 21.507812 56.300781 21.464844 56.402344 21.449219 56.507812 C 21.449219 56.675781 21.550781 56.757812 21.796875 56.777344 C 22.5 56.855469 22.886719 56.894531 23.625 56.96875 C 24.652344 57.085938 24.976562 57.585938 24.976562 58.480469 C 24.976562 59.8125 24.472656 60.339844 22.121094 60.339844 C 21.296875 60.34375 20.476562 60.242188 19.683594 60.03125 L 19.878906 58.863281 C 20.574219 59.039062 21.289062 59.128906 22.003906 59.132812 C 23.261719 59.132812 23.511719 59.042969 23.511719 58.636719 C 23.511719 58.230469 23.394531 58.1875 22.914062 58.140625 C 22.1875 58.0625 21.890625 58.023438 21.085938 57.933594 C 20.191406 57.832031 19.832031 57.539062 19.832031 56.746094 C 19.84375 56.527344 19.910156 56.316406 20.027344 56.128906 C 20.140625 55.945312 20.304688 55.789062 20.492188 55.679688 C 19.90625 55.335938 19.636719 54.757812 19.636719 54.003906 L 19.636719 53.414062 C 19.660156 52.121094 20.351562 51.339844 22.179688 51.339844 C 22.542969 51.335938 22.90625 51.378906 23.257812 51.464844 L 25.199219 51.464844 L 25.199219 52.246094 C 24.980469 52.3125 24.722656 52.375 24.5 52.441406 C 24.652344 52.742188 24.726562 53.074219 24.722656 53.414062 L 24.722656 54.003906 C 24.722656 55.269531 23.941406 56.039062 22.179688 56.039062 C 22.058594 56.035156 21.941406 56.027344 21.824219 56.011719 Z M 22.1875 52.589844 C 21.40625 52.589844 21.136719 52.871094 21.136719 53.460938 L 21.136719 53.933594 C 21.136719 54.550781 21.449219 54.78125 22.1875 54.78125 C 22.925781 54.78125 23.25 54.53125 23.25 53.933594 L 23.25 53.460938 C 23.25 52.859375 22.976562 52.589844 22.1875 52.589844 Z M 22.1875 52.589844 "/>
<path style=" stroke:none;fill-rule:nonzero;fill:rgb(0%,0%,0%);fill-opacity:1;" d="M 29.179688 52.757812 C 28.597656 53.019531 28.039062 53.324219 27.503906 53.667969 L 27.503906 57.6875 L 25.921875 57.6875 L 25.921875 51.449219 L 27.257812 51.449219 L 27.363281 52.144531 C 27.875 51.800781 28.433594 51.523438 29.023438 51.324219 Z M 29.179688 52.757812 "/>
<path style=" stroke:none;fill-rule:nonzero;fill:rgb(0%,0%,0%);fill-opacity:1;" d="M 34.472656 57.6875 L 33.171875 57.6875 L 33.058594 57.269531 C 32.496094 57.628906 31.84375 57.820312 31.175781 57.816406 C 30.023438 57.816406 29.527344 57.035156 29.527344 55.960938 C 29.527344 54.691406 30.085938 54.207031 31.371094 54.207031 L 32.878906 54.207031 L 32.878906 53.550781 C 32.878906 52.859375 32.683594 52.617188 31.671875 52.617188 C 31.082031 52.621094 30.492188 52.6875 29.914062 52.808594 L 29.71875 51.621094 C 30.429688 51.425781 31.164062 51.324219 31.902344 51.324219 C 33.886719 51.324219 34.472656 52.015625 34.472656 53.578125 Z M 32.886719 55.332031 L 31.71875 55.332031 C 31.203125 55.332031 31.058594 55.472656 31.058594 55.949219 C 31.058594 56.382812 31.203125 56.574219 31.695312 56.574219 C 32.113281 56.570312 32.523438 56.460938 32.886719 56.253906 Z M 32.886719 55.332031 "/>
<path style=" stroke:none;fill-rule:nonzero;fill:rgb(0%,0%,0%);fill-opacity:1;" d="M 39.1875 57.6875 L 39.1875 53.332031 C 39.1875 53 39.046875 52.835938 38.6875 52.835938 C 38.105469 52.902344 37.546875 53.082031 37.039062 53.363281 L 37.039062 57.691406 L 35.457031 57.691406 L 35.457031 51.449219 L 36.660156 51.449219 L 36.816406 51.976562 C 37.605469 51.585938 38.464844 51.363281 39.347656 51.324219 C 40.398438 51.324219 40.773438 52.054688 40.773438 53.167969 L 40.773438 57.6875 Z M 39.1875 57.6875 "/>
<path style=" stroke:none;fill-rule:nonzero;fill:rgb(0%,0%,0%);fill-opacity:1;" d="M 45.417969 57.574219 C 44.972656 57.730469 44.503906 57.816406 44.027344 57.824219 C 42.875 57.824219 42.289062 57.285156 42.289062 56.171875 L 42.289062 52.699219 L 41.34375 52.699219 L 41.34375 51.457031 L 42.289062 51.457031 L 42.289062 49.910156 L 43.875 49.691406 L 43.875 51.457031 L 45.496094 51.457031 L 45.390625 52.699219 L 43.882812 52.699219 L 43.882812 55.964844 C 43.875 56.039062 43.882812 56.117188 43.910156 56.191406 C 43.933594 56.261719 43.976562 56.328125 44.03125 56.378906 C 44.085938 56.433594 44.152344 56.472656 44.226562 56.496094 C 44.300781 56.519531 44.378906 56.527344 44.453125 56.515625 C 44.722656 56.507812 44.988281 56.464844 45.246094 56.386719 Z M 45.417969 57.574219 "/>
<path style=" stroke:none;fill-rule:nonzero;fill:rgb(5.490196%,40.392157%,92.941176%);fill-opacity:1;" d="M 37.449219 4.886719 L 30.332031 8.941406 L 30.332031 11.4375 L 25.996094 21.503906 L 21.664062 11.4375 L 21.664062 8.941406 L 14.546875 4.886719 L 10.214844 7.355469 L 10.214844 10.226562 L 19.859375 33.535156 L 25.996094 37.039062 L 32.140625 33.535156 L 41.777344 10.226562 L 41.777344 7.355469 Z M 37.449219 4.886719 "/>
<path style=" stroke:none;fill-rule:nonzero;fill:rgb(3.137255%,31.372549%,77.254902%);fill-opacity:1;" d="M 41.777344 7.355469 L 34.664062 11.414062 L 34.664062 13.902344 L 28.882812 26.660156 L 25.996094 28.304688 L 25.996094 37.039062 L 32.140625 33.535156 L 41.777344 10.226562 Z M 41.777344 7.355469 "/>
<path style=" stroke:none;fill-rule:nonzero;fill:rgb(3.137255%,31.372549%,77.254902%);fill-opacity:1;" d="M 21.664062 11.4375 L 21.664062 8.941406 L 17.332031 11.414062 L 17.332031 13.902344 L 23.113281 26.660156 L 25.996094 25.011719 L 25.996094 21.503906 Z M 21.664062 11.4375 "/>
</g>
</svg>
